<svg id="Layer_1" data-name="Layer 1" xmlns="http://www.w3.org/2000/svg" viewBox="0 0 160 68"><defs><style>.cls-1{fill:#fff;}</style></defs><g id="brawl_stars" data-name="brawl stars"><g id="Group_102" data-name="Group 102"><path id="Path_40" data-name="Path 40" class="cls-1" d="M66.45723,27.04218a2.64,2.64,0,0,1-1.8.873l-4.656.455-.666-6.826-.634.062.359-2.883,4.764-.465A2.3,2.3,0,0,1,66.391,20.2561q.00879.07081.01325.14208a2.39,2.39,0,0,1-.962,2.287,3.73043,3.73043,0,0,1,1.169.954,3.05463,3.05463,0,0,1,.47,1.463A2.38587,2.38587,0,0,1,66.45723,27.04218Zm-4.154-6.016-.205.02.11,1.128.313-.031q.864-.084.809-.649T62.30323,21.02618Zm.492,3.149-.4.057.161,1.655.622-.079q1-.1.914-.961Q64.01725,24.05617,62.79524,24.17518Z"/><path id="Path_41" data-name="Path 41" class="cls-1" d="M71.4842,27.59418l-1.2-2.907-.1,2.861-2.9-.109.245-6.84-.666-.024.768-2.823,4.047.156a3.585,3.585,0,0,1,1.691,6.626l1.443,3.19Zm-.317-6.889-.722-.026-.057,1.6.722.026q1.034.037,1.062-.742.029-.821-1.00494-.858Z"/><path id="Path_42" data-name="Path 42" class="cls-1" d="M81.55616,27.51117l-.344-1.346-2.779.146-.329,1.382-3.137.165,1.417-7.262-.89.036.486-2.686,5.534-.256,3.291,9.653Zm-2.118-6.492-.53,2.575,1.339-.07Z"/><path id="Path_43" data-name="Path 43" class="cls-1" d="M102.5702,28.17118l-5.3-.185.287-6.782-.666-.028.615-2.874,3.2.128-.282,6.668,2.969.086Z"/><path id="Path_44" data-name="Path 44" class="cls-1" d="M96.97023,17.79218l-1.492,9.866-3.9.291-1.3-3.585-.651,3.73-3.718.279-3.223-9.52,3.744-.279,1.3,3.59.652-3.734,2.96-.22,1.3,3.586.651-3.732Z"/></g><g id="Group_103" data-name="Group 103"><path id="Path_45" data-name="Path 45" class="cls-1" d="M57.43623,48.18418a10.58391,10.58391,0,0,1-6.5,2.078,11.52094,11.52094,0,0,1-6.73-1.545l1.323-6.77,1.7.756a7.47109,7.47109,0,0,0,.91.342,11.72029,11.72029,0,0,0,3.113.482q1.491-.029,1.47-1.09c-.01-.53-.894-.944-2.5-1.442a17.91725,17.91725,0,0,1-4.544-1.879,6.13,6.13,0,0,1-2.5-5.106,6.468,6.468,0,0,1,2.118-5.247,7.064,7.064,0,0,1,5.006-1.994l1.06-.021c.133,0,.326,0,.581.022s.394.052.771.089l.065-.741,6.316,1.042-1.83,6.781a8.83948,8.83948,0,0,0-2.51-.851,10.63535,10.63535,0,0,0-2.541-.284q-1.591.031-1.57,1.092c.009.442.567.91,2.147,1.409a19.44491,19.44491,0,0,1,4.689,1.969,6.078,6.078,0,0,1,2.486,5.023A7.12,7.12,0,0,1,57.43623,48.18418Z"/><path id="Path_46" data-name="Path 46" class="cls-1" d="M73.05925,30.29818l-6.4.238-.13.779-7.637.325-1.06,5.106,4.252-.161.529,12.125,5.157-.225-.528-12.1,4.329-.164Z"/><path id="Path_47" data-name="Path 47" class="cls-1" d="M114.26823,38.38218a15.3478,15.3478,0,0,0-3.96-2.314c-1.464-.637-1.953-1.142-1.916-1.566.057-.68.551-.895,1.568-.808a6.11273,6.11273,0,0,1,2.124.606,13.591,13.591,0,0,1,2.453,1.3l2.3-6.75-5.482-1.343-.137.7c-.357-.073-.488-.121-.729-.163s-.427-.069-.555-.08l-1.018-.087a6.85492,6.85492,0,0,0-5.044,1.246,6.233,6.233,0,0,0-2.56,4.815.0331.0331,0,0,1,0,.012,5.97719,5.97719,0,0,0-.751-.976,6.339,6.339,0,0,0-4.615-1.982l-7.51-.289-1.425,5.238,1.1.045-.306,8.396-3.63-14.084h-10.381l-1.253,5.04h1.731l-3.63507,13.344h6.068l.75-2.557h4.919l.49,2.557h4.795l5.438.2.173-5.238,2.075,5.315,6.42.251-.509-1.123a13.79976,13.79976,0,0,0,5.428,2.082,8.77405,8.77405,0,0,0,6.439-1.338,6.86,6.86,0,0,0,3.025-5.385A5.857,5.857,0,0,0,114.26823,38.38218Zm-35.817,2.956,1.395-5.236,1.4,5.236Zm15.585-1.933-1.158-.035.078-3.453,1.158.035q2.23.049,2.191,1.823-.039,1.682-2.27,1.633Zm13.633,4.341a10.977,10.977,0,0,1-2.738-.879,6.8774,6.8774,0,0,1-.838-.421l-1.558-.895-1.795,5.4-1.657-3.661a6.29991,6.29991,0,0,0,3.136-5.335,5.72808,5.72808,0,0,0,.98,1.132,13.57215,13.57215,0,0,0,3.74,2.127c1.485.64,2.292,1.125,2.249,1.634q-.08909,1.024-1.52008.901Z"/></g></g></svg>