<svg version="1.2" xmlns="http://www.w3.org/2000/svg" viewBox="0 0 160 68" width="160" height="68">
	<title>EA_Sports_FC_logo-svg</title>
	<style>
		.s0 { fill: #000000 } 
		.s1 { fill: #ffffff } 
	</style>
	<path class="s0" d="m57.6 54.4c-11.3 0-20.4-9.2-20.4-20.7 0-11.4 9.1-20.7 20.4-20.7 11.2 0 20.3 9.3 20.3 20.7 0 11.5-9.1 20.7-20.3 20.7z"/>
	<path class="s1" d="m79.7 14l5.3 9.3 5.2-9.3z"/>
	<path class="s1" d="m108.4 30.8l-6.3 10.9-0.9-1.6 11.5-20.1h1.9l-5.3 9.2h6.6l8.7-15.2c0 0-11.1 0-12.9 0-2.3 0-3.7 2.3-3.7 2.3 0 0-12.2 21.4-12.2 21.4-0.7 1.3-0.7 3.4 0 4.6 0 0 6.3 11.1 6.3 11.1l12.9-22.6h-6.6z"/>
	<path class="s1" d="m91.1 27.5h8.6l3.4-5.9h-8.6l0.9-1.7h8.6l3.4-5.9c0 0-10.5 0-12.7 0-2.4 0-3.8 2.3-3.8 2.3l-5 8.6 3.3 5.9z"/>
	<path class="s1" d="m50.7 38.1h-1.4v1.9h1.4q0.2 0 0.3-0.1 0.2-0.2 0.2-0.4v-0.9q0-0.2-0.2-0.3-0.1-0.2-0.3-0.2z"/>
	<path class="s1" d="m61 38.1h-1.4v1.8h1.4q0.2 0 0.3-0.2 0.1-0.1 0.1-0.3v-0.8q0-0.2-0.1-0.3-0.1-0.2-0.3-0.2z"/>
	<path class="s1" d="m55.8 38.1h-1q-0.2 0-0.3 0.2-0.2 0.1-0.2 0.3v3.2q0 0.2 0.2 0.3 0.1 0.2 0.3 0.2h1q0.2 0 0.3-0.2 0.1-0.1 0.1-0.3v-3.2q0-0.2-0.1-0.3-0.1-0.2-0.3-0.2z"/>
	<path fill-rule="evenodd" class="s1" d="m57.6 56.2c-12.3 0-22.2-10-22.2-22.5 0-12.4 9.9-22.5 22.2-22.5 12.2 0 22.1 10.1 22.1 22.5 0 12.5-9.9 22.5-22.1 22.5zm5.4-29.3l2 3.2h-1.7l-1.8 2.8h5.2l1.8 2.8h3.3l-8.8-14.1-7.1 11.3h-7.7l1.8-2.8h4.8l1.7-2.8h-10.7l-1.7 2.8h2.5l-3.5 5.6h14.4zm-16 14q0-0.5-0.3-0.9-0.4-0.4-0.9-0.4h-1.3q-0.4 0-0.4-0.4v-0.5q0-0.3 0.1-0.4 0.1-0.2 0.3-0.2h1q0.4 0 0.5 0.4l0.1 0.5h0.9v-0.5q0-0.6-0.3-1-0.4-0.3-0.9-0.3h-1.5q-0.5 0-0.9 0.4-0.4 0.3-0.4 0.9v0.8q0 0.6 0.4 1 0.4 0.3 0.9 0.3h1.3q0.4 0 0.4 0.5v0.7q0 0.2-0.1 0.3-0.1 0.2-0.3 0.2h-1.1q-0.3 0-0.4-0.4l-0.2-0.5h-0.9v0.6q0 0.5 0.4 0.9 0.3 0.4 0.9 0.4h1.5q0.5 0 0.9-0.4 0.3-0.4 0.3-0.9zm5.2-2.5q0-0.5-0.3-0.9-0.4-0.4-0.9-0.4h-2.7v6.1h1v-2.2h1.7q0.5 0 0.9-0.4 0.3-0.4 0.3-0.9zm5.1 0q0-0.6-0.4-0.9-0.3-0.4-0.9-0.4h-1.4q-0.5 0-0.9 0.4-0.4 0.3-0.4 0.9v3.5q0 0.5 0.4 0.9 0.4 0.4 0.9 0.4h1.4q0.6 0 0.9-0.4 0.4-0.4 0.4-0.9zm-9.7-14h11.4l1.7-2.8h-11.4zm15.2 18.7l-1.1-2.5q0.4-0.1 0.6-0.4 0.3-0.4 0.2-0.8v-1.1q0-0.5-0.3-0.9-0.4-0.3-0.9-0.3h-2.7v6h1.1v-2.3h1l1 2.3zm4.5-5.1v-0.9h-4.1v0.9h1.5v5.1h1.1v-5.1zm4.8 2.8q0-0.5-0.4-0.9-0.4-0.4-0.9-0.4h-1.3q-0.4 0-0.4-0.5v-0.5q0-0.2 0.1-0.3 0.1-0.2 0.3-0.2h1q0.4 0 0.5 0.4l0.1 0.5h0.9v-0.6q0-0.5-0.3-0.9-0.4-0.3-0.9-0.3h-1.5q-0.5 0-0.9 0.3-0.4 0.4-0.4 1v0.8q0 0.6 0.4 0.9 0.4 0.4 0.9 0.4h1.3q0.4 0 0.4 0.5v0.7q0 0.2-0.1 0.3-0.1 0.2-0.3 0.2h-1q-0.4 0-0.5-0.4l-0.1-0.5h-1v0.6q0 0.5 0.4 0.9 0.4 0.3 0.9 0.3h1.5q0.5 0 0.9-0.3 0.4-0.4 0.4-1zm0.6-3.5h-0.6v0.1h0.3v0.5h0.1v-0.5h0.2zm0.7 0.6h0.1v-0.6h-0.1l-0.2 0.4-0.3-0.4h-0.1v0.6h0.1v-0.4q0 0 0 0 0 0 0.1 0l0.1 0.3h0.1l0.1-0.3q0.1 0 0.1 0 0 0 0 0z"/>
</svg>