<svg id="Layer_1" data-name="Layer 1" xmlns="http://www.w3.org/2000/svg" viewBox="0 0 160 68"><defs><style>.cls-1{fill:#fff;}</style></defs><g id="fortnite"><path id="Path_9" data-name="Path 9" class="cls-1" d="M33.79689,47.14308s-.011-7.287-.032-9.572q-.033-2.946-.08-7c-.032-2.7-.08-5.85-.144-9.1q1.281.032,2.914,0c.939,0,2.049.078,3.331.056s2.722.035,4.323-.008q-.033.609-.032,1.442-.032.737-.032,1.793v2.5q-.449-.032-1.121-.032-.577,0-1.473.016t-2.114.049v1.184q0,.577-.016,1.41c-.011.555-.006.691.016,1.4h1.393c.737,0,.979-.021,2.217-.064V33.28c0,.492-.089,1.941-.089,2.635s.011-.067.032.744q-.417-.032-1.025-.032h-.777c-.534,0-.909.011-1.656.032.021.961.038,2.631.048,3.7s.037,4.382.08,5.577Z"/><path id="Path_10" data-name="Path 10" class="cls-1" d="M50.56888,40.49006a.466.466,0,0,0,.369-.206,2.13183,2.13183,0,0,0,.265-.885,18.54025,18.54025,0,0,0,.148-2.007q.044-1.328.044-3.6,0-2.15306-.044-3.453a18.32188,18.32188,0,0,0-.148-1.977,2.07609,2.07609,0,0,0-.28-.9.518.518,0,0,0-.413-.221.551.551,0,0,0-.472.251,2.38516,2.38516,0,0,0-.266.989q-.088.739-.118,2.066t-.029,3.452q0,2.155.059,3.438t.162,1.962a1.94363,1.94363,0,0,0,.281.885.55806.55806,0,0,0,.443.206m-.059,4.043a6.50019,6.50019,0,0,1-3.1-.679,5.309,5.309,0,0,1-2.065-2.006,9.916,9.916,0,0,1-1.166-3.276,24.46193,24.46193,0,0,1-.369-4.515,31.02768,31.02768,0,0,1,.3-4.471,11.0599,11.0599,0,0,1,1.047-3.482,5.71986,5.71986,0,0,1,2.027-2.268,6.0651,6.0651,0,0,1,3.29-.812,6.676,6.676,0,0,1,3.35.752,5.30018,5.30018,0,0,1,2.066,2.17,10.35823,10.35823,0,0,1,1.033,3.452,34.321,34.321,0,0,1,.28,4.633,26.02968,26.02968,0,0,1-.442,4.9,9.377,9.377,0,0,1-1.225,3.246,4.779,4.779,0,0,1-2.066,1.8,7.23136,7.23136,0,0,1-2.966.56"/><path id="Path_11" data-name="Path 11" class="cls-1" d="M63.39089,33.73408a1.761,1.761,0,0,0,1.4-.665,3.47493,3.47493,0,0,0,.507-2.133,4.7359,4.7359,0,0,0-.476-2.313,1.468,1.468,0,0,0-1.52-.762q0,1.108.015,2.147t.046,1.87q.03.97.031,1.856m2.426,11.158-.522-2.088c-.164-.676-.369-1.224-.614-2.176s-.533-2.021-.859-3.209a.176.176,0,0,1-.123.031h-.307l.123,6.6h-3.408q-1.044,0-2.273.03.031-2.456.062-5.681.03-2.763.046-6.633c.01-2.58.111-5.311.111-8.566.921-.164,4.233-.072,4.949-.072,2.845,0,4.164.169,5.484,1.469a7.67,7.67,0,0,1,2.525,5.633,7.42706,7.42706,0,0,1-.6,3.378,6.08588,6.08588,0,0,1-1.889,2.211q.185.615.921,2.841c.491,1.484,1.208,3.261,2.15,5.861q-.645.03-1.5.092-.737.061-1.812.138t-2.457.139"/><path id="Path_12" data-name="Path 12" class="cls-1" d="M83.15389,43.73009q.03-2.332.032-5.453,0-2.678-.032-6.445c-.021-2.511.041-4.892,0-8.086.455-.021,4.151-.77,4.916-.812.269.819.678,1.853,1.05,2.925q.465,1.387,1.148,3.372t1.582,4.507q-.093-1.922-.279-4.869c-.124-1.964-.3-3.439-.527-6.192.393.021,4.27.027,5.056.006.02,1.723-.076,17.881.028,21.411-.331.042-3.45.384-4.318.447q-.465-1.323-1.055-3.025c-.352-.966-.765-1.752-1.241-3.066s-1-2.768-1.582-4.365q.061,1.639.155,4,.094,2.361.31,5.736-.621,0-1.427-.031-.683-.031-1.66-.047t-2.156-.016"/><path id="Path_13" data-name="Path 13" class="cls-1" d="M97.40792,44.87706v-6.469q0-3.01-.032-7.045c-.021-2.69-.053-4.455-.1-7.593h3.283q1.072,0,2.514-.032c0,2.114.01,3.238.032,5.672q.031,3.106.048,7.109t.08,8.359h-5.825Z"/><path id="Path_14" data-name="Path 14" class="cls-1" d="M103.6029,30.06709q.029-.447.03-1.217,0-.64-.015-1.7t-.045-2.626s9.836-.35,11.792-.393c-.02.449-.04,1.216-.06,1.77q-.03.738-.045,1.778c-.01.694-.006.959.015,1.856h-.838c-.28,0-.614,0-1-.016s-.833-.016-1.332-.016v3.01c0,1.11,0,2.884.015,4.261s.025,1.4.045,3.061.039,3.523.06,5.573q-.569-.032-1.347-.032-.689,0-1.691.016t-2.349.048q.029-1.986.03-4.58c0-1.473-.005-1.743-.016-3.814s-.025-4.408-.045-7.013Z"/><path id="Path_15" data-name="Path 15" class="cls-1" d="M71.09789,28.52608q.031-.448.032-1.217,0-.641-.016-1.7t-.048-2.626s9.49.657,11.674.97c-.021.449-.042,1.492-.052,2.185s-.005,2.461.016,3.358h-.9c-.3,0-.214-.005-.631-.016s-.892-.015-1.425-.015v3.013c0,1.111.005,1.381.016,2.759s.027,1.572.048,3.238.042,3.522.064,5.572q-.608-.033-1.441-.032-.737,0-1.809.016t-2.514.048q.032-1.985.032-4.58c0-1.473-.005-1.919-.016-3.99s-.027-4.408-.048-7.013Z"/><path id="Path_16" data-name="Path 16" class="cls-1" d="M116.07989,45.76506c-.02-1.857.225-4.381.206-6.687q-.02894-2.978-.074-7.013c-.029-2.69-.064-6.1-.1-9.345.552,0,7.848-.869,9.643-.891v4.616c0,.694.02.75.059,1.583q-.828.032-1.627.032-.68.033-1.434.033t-1.346.032q-.03012.641-.015,1.169c.01.352.015,1.375.015,1.652v.865q.177,0,1.035.016t2.633-.048v3.25c0,.651.009.665.029,1.455h-1.04095q-.5,0-1.153-.016-.653-.016-1.391-.016v.768c0,.512.029,1.9.089,2.757q.474.032,1.125.064l1.3.08q.76895.048,1.716.08-.03.545-.029,1.345-.03012.673-.03,1.665v3.222c-.868-.021-8.37-.644-9.612-.666"/></g></svg>