<?xml version="1.0" encoding="UTF-8"?>
<svg xmlns="http://www.w3.org/2000/svg" xmlns:xlink="http://www.w3.org/1999/xlink" width="254px" height="128px" viewBox="0 0 254 128" version="1.1">
<g id="surface1">
<path style=" stroke:none;fill-rule:nonzero;fill:rgb(89.019608%,1.960784%,7.058824%);fill-opacity:1;" d="M 157.445312 30.207031 L 131.808594 30.207031 C 131.324219 30.207031 131.035156 30.496094 131.035156 30.980469 L 131.035156 39.203125 C 131.035156 39.492188 131.226562 39.878906 131.808594 39.878906 L 147.574219 39.878906 L 130.742188 87.480469 C 130.550781 87.960938 130.453125 88.929688 130.453125 89.511719 L 130.453125 97.152344 C 130.453125 97.445312 130.648438 97.925781 131.226562 97.925781 L 156.960938 97.925781 C 157.347656 97.925781 157.636719 97.734375 157.636719 97.152344 L 157.636719 88.929688 C 157.636719 88.542969 157.347656 88.253906 156.960938 88.253906 L 141.09375 88.253906 L 157.636719 41.238281 C 158.023438 40.367188 158.21875 39.398438 158.21875 38.527344 L 158.21875 30.984375 C 158.21875 30.496094 157.929688 30.207031 157.445312 30.207031 Z M 157.445312 30.207031 "/>
<path style=" stroke:none;fill-rule:nonzero;fill:rgb(89.019608%,1.960784%,7.058824%);fill-opacity:1;" d="M 180.757812 29.722656 L 170.890625 29.722656 C 163.730469 29.722656 161.121094 33.207031 161.121094 39.207031 L 161.121094 89.125 C 161.121094 94.929688 163.34375 98.410156 171.085938 98.410156 L 180.855469 98.410156 C 188.402344 98.410156 190.527344 94.929688 190.527344 88.929688 L 190.527344 39.109375 C 190.527344 33.207031 187.917969 29.722656 180.757812 29.722656 Z M 180.273438 88.15625 C 180.273438 88.542969 180.179688 88.640625 179.792969 88.640625 L 171.859375 88.640625 C 171.472656 88.640625 171.375 88.542969 171.375 88.15625 L 171.375 39.980469 C 171.375 39.59375 171.472656 39.496094 171.859375 39.496094 L 179.792969 39.496094 C 180.179688 39.496094 180.273438 39.59375 180.273438 39.980469 Z M 180.273438 88.15625 "/>
<path style=" stroke:none;fill-rule:nonzero;fill:rgb(89.019608%,1.960784%,7.058824%);fill-opacity:1;" d="M 225.9375 30.207031 L 217.421875 30.207031 C 216.941406 30.207031 216.648438 30.496094 216.648438 30.980469 L 216.648438 63.195312 L 207.554688 30.980469 C 207.554688 30.496094 207.265625 30.207031 206.78125 30.207031 L 198.074219 30.207031 C 197.589844 30.207031 197.300781 30.496094 197.300781 30.980469 L 197.300781 97.152344 C 197.300781 97.445312 197.496094 97.925781 198.074219 97.925781 L 206.585938 97.925781 C 207.070312 97.925781 207.359375 97.734375 207.359375 97.152344 L 207.359375 64.9375 L 216.453125 97.152344 C 216.453125 97.445312 216.648438 97.925781 217.226562 97.925781 L 225.9375 97.925781 C 226.324219 97.925781 226.710938 97.734375 226.710938 97.152344 L 226.710938 30.980469 C 226.710938 30.496094 226.324219 30.207031 225.9375 30.207031 Z M 225.9375 30.207031 "/>
<path style=" stroke:none;fill-rule:nonzero;fill:rgb(89.019608%,1.960784%,7.058824%);fill-opacity:1;" d="M 253.214844 39.882812 C 253.601562 39.882812 253.988281 39.6875 253.988281 39.207031 L 253.988281 30.984375 C 253.988281 30.5 253.601562 30.210938 253.214844 30.210938 L 235.222656 30.210938 C 234.738281 30.210938 234.449219 30.5 234.449219 30.984375 L 234.449219 97.15625 C 234.449219 97.445312 234.644531 97.929688 235.222656 97.929688 L 253.214844 97.929688 C 253.601562 97.929688 253.988281 97.734375 253.988281 97.15625 L 253.988281 88.835938 C 253.988281 88.449219 253.601562 88.160156 253.214844 88.160156 L 244.703125 88.160156 L 244.703125 68.421875 L 253.214844 68.421875 C 253.601562 68.421875 253.988281 68.230469 253.988281 67.648438 L 253.988281 59.425781 C 253.988281 58.945312 253.601562 58.652344 253.214844 58.652344 L 244.703125 58.652344 L 244.703125 39.882812 Z M 253.214844 39.882812 "/>
<path style=" stroke:none;fill-rule:nonzero;fill:rgb(89.019608%,1.960784%,7.058824%);fill-opacity:1;" d="M 75.773438 71.144531 L 81.097656 71.144531 L 78.582031 52.472656 Z M 75.773438 71.144531 "/>
<path style=" stroke:none;fill-rule:nonzero;fill:rgb(89.019608%,1.960784%,7.058824%);fill-opacity:1;" d="M 22.664062 57.988281 L 22.664062 40.285156 C 22.664062 39.898438 22.570312 39.800781 22.183594 39.800781 L 15.214844 39.800781 L 15.214844 58.472656 L 22.183594 58.472656 C 22.570312 58.472656 22.664062 58.375 22.664062 57.988281 Z M 22.664062 57.988281 "/>
<path style=" stroke:none;fill-rule:nonzero;fill:rgb(89.019608%,1.960784%,7.058824%);fill-opacity:1;" d="M 4.960938 88.570312 L 4.960938 39.34375 C 1.800781 46.921875 0.0546875 55.234375 0.0546875 63.957031 C 0.0546875 72.679688 1.800781 80.992188 4.960938 88.570312 Z M 4.960938 88.570312 "/>
<path style=" stroke:none;fill-rule:nonzero;fill:rgb(89.019608%,1.960784%,7.058824%);fill-opacity:1;" d="M 113.601562 74.628906 L 113.601562 96.976562 C 113.601562 97.554688 113.214844 97.75 112.828125 97.75 L 104.121094 97.75 C 103.539062 97.75 103.347656 97.265625 103.347656 96.976562 L 103.347656 74.628906 L 93.769531 30.804688 C 93.671875 30.320312 94.15625 30.03125 94.542969 30.03125 L 103.25 30.03125 C 103.734375 30.03125 103.925781 30.320312 104.023438 30.804688 L 108.472656 54.117188 L 112.824219 30.804688 C 112.921875 30.320312 113.210938 30.03125 113.597656 30.03125 L 118.324219 30.03125 C 107.011719 11.96875 86.9375 -0.0429688 64.054688 -0.0429688 C 41.167969 -0.0429688 21.09375 11.96875 9.78125 30.03125 L 23.148438 30.03125 C 30.308594 30.03125 32.921875 33.511719 32.921875 39.414062 L 32.921875 58.28125 C 32.921875 64.277344 30.792969 68.242188 23.246094 68.242188 L 15.214844 68.242188 L 15.214844 96.976562 C 15.214844 97.554688 14.925781 97.75 14.441406 97.75 L 9.699219 97.75 C 20.996094 115.882812 41.113281 127.957031 64.050781 127.957031 C 99.398438 127.957031 128.050781 99.304688 128.050781 63.957031 C 128.050781 54.113281 125.828125 44.789062 121.855469 36.457031 Z M 57.007812 96.976562 C 57.007812 97.554688 56.71875 97.75 56.234375 97.75 L 37.464844 97.75 C 36.886719 97.75 36.691406 97.265625 36.691406 96.976562 L 36.691406 30.804688 C 36.691406 30.320312 36.984375 30.03125 37.464844 30.03125 L 46.171875 30.03125 C 46.65625 30.03125 46.945312 30.320312 46.945312 30.804688 L 46.945312 87.980469 L 56.234375 87.980469 C 56.71875 87.980469 57.007812 88.367188 57.007812 88.753906 Z M 94.445312 97.75 L 85.351562 97.75 C 84.964844 97.75 84.578125 97.460938 84.578125 96.976562 L 82.355469 80.820312 L 74.324219 80.820312 L 71.90625 96.976562 C 71.90625 97.460938 71.617188 97.75 71.132812 97.75 L 62.039062 97.75 C 61.554688 97.75 61.265625 97.460938 61.265625 96.976562 L 72.777344 30.804688 C 72.777344 30.515625 72.972656 30.03125 73.550781 30.03125 L 83.515625 30.03125 C 84.09375 30.03125 84.289062 30.515625 84.289062 30.804688 L 95.21875 96.976562 C 95.21875 97.460938 94.929688 97.75 94.445312 97.75 Z M 94.445312 97.75 "/>
</g>
</svg>
