<svg id="Layer_1" data-name="Layer 1" xmlns="http://www.w3.org/2000/svg" viewBox="0 0 160 68"><defs><style>.cls-1{fill:#fff;}</style></defs><g id="lol"><path id="path2" class="cls-1" d="M100.651,35.51847v17.361H96.81l-8.3-11.282v11.282H84.83v-15.738l-.841-1.623h4.757l8.221,11.438v-11.438Z"/><path id="path4" class="cls-1" d="M62.412,53.17945a9.19213,9.19213,0,0,0,3.51-.638,8.43887,8.43887,0,0,0,2.783-1.792,8.274,8.274,0,0,0,1.837-2.713,8.47422,8.47422,0,0,0,.619-2.381,17.507,17.507,0,0,0,.032-2.424H62.448l-1.557,3.13h6.24a4.117,4.117,0,0,1-1.632,2.417,5,5,0,0,1-3.043.913,5.25407,5.25407,0,0,1-2.126-.444,5.48693,5.48693,0,0,1-1.715-1.183,5.41484,5.41484,0,0,1-1.143-1.75,5.7,5.7,0,0,1,.022-4.282,5.372,5.372,0,0,1,2.877-2.893,5.30566,5.30566,0,0,1,2.117-.411,5.50015,5.50015,0,0,1,2.731.682,4.58512,4.58512,0,0,1,1.838,1.939l3.453-1.616a7.86009,7.86009,0,0,0-3.186-3.307,9.64,9.64,0,0,0-4.792-1.212,9.256,9.256,0,0,0-8.56,5.451,8.40027,8.40027,0,0,0-.753,3.485,8.53691,8.53691,0,0,0,.7,3.493,9.09,9.09,0,0,0,4.862,4.812,9.31618,9.31618,0,0,0,3.628.723Z"/><path id="path6" class="cls-1" d="M33.722,35.51747H29.038l.884,1.8v13.775l-.884,1.794h10.75l.975-3.4H33.722Z"/><path id="path8" class="cls-1" d="M42.061,52.88148H52.539v-3.4H45.875v-3.809h5.152l.933-3.264H45.874v-3.512h6.664v-3.382H42.061Z"/><path id="path10" class="cls-1" d="M72.524,52.88148H83.002v-3.4H76.338v-3.809h5.154l.932-3.264H76.339v-3.512h6.664v-3.382H72.524Z"/><path id="path12" class="cls-1" d="M79.237,32.77546a9.18983,9.18983,0,0,0,3.51-.638,8.434,8.434,0,0,0,2.783-1.792,8.27334,8.27334,0,0,0,1.837-2.712,8.48356,8.48356,0,0,0,.619-2.381,17.46805,17.46805,0,0,0,.032-2.424H79.273l-1.557,3.129h6.24a4.11694,4.11694,0,0,1-1.633,2.417,5,5,0,0,1-3.043.913,5.2519,5.2519,0,0,1-2.126-.444,5.49084,5.49084,0,0,1-1.715-1.183,5.41883,5.41883,0,0,1-1.144-1.75,5.69992,5.69992,0,0,1,.022-4.282,5.37194,5.37194,0,0,1,2.877-2.893,5.307,5.307,0,0,1,2.117-.411,5.5,5.5,0,0,1,2.731.682,4.583,4.583,0,0,1,1.838,1.939l3.453-1.616a7.85885,7.85885,0,0,0-3.186-3.307,9.6391,9.6391,0,0,0-4.792-1.212,9.257,9.257,0,0,0-8.56,5.451,8.39978,8.39978,0,0,0-.752,3.485,8.53611,8.53611,0,0,0,.7,3.493,9.2,9.2,0,0,0,8.49,5.536Z"/><path id="path14" class="cls-1" d="M33.722,15.11447H29.038l.884,1.8v13.775l-.884,1.794h10.75l.975-3.4H33.722Z"/><path id="path16" class="cls-1" d="M42.061,32.47847H52.539v-3.4H45.875v-3.808h5.152l.933-3.264H45.874v-3.512h6.664v-3.382H42.061Z"/><path id="path18" class="cls-1" d="M105.259,32.47847h10.477v-3.4h-6.663v-3.808h5.153l.932-3.264h-6.084v-3.512h6.663v-3.382H105.259Z"/><path id="path20" class="cls-1" d="M64.286,15.11447H58.867l1.146,2.214-6.258,15.151h3.9l1.328-3.388h7.048l1.366,3.388h3.974Zm-4,10.657,2.288-5.834,2.2,5.834Z"/><path id="path22" class="cls-1" d="M125.691,19.88945v7.809h1.963v-2.64h2.026l.49-1.717h-2.517v-1.683h2.879v-1.769Z"/><path id="path24" class="cls-1" d="M120.838,19.73448a4.061,4.061,0,1,0,4.146,4.06A4.108,4.108,0,0,0,120.838,19.73448Zm0,6.236a2.176,2.176,0,1,1,2.218-2.176A2.2,2.2,0,0,1,120.838,25.97047Z"/><path id="path26" class="cls-1" d="M96.471,32.77946a8.28084,8.28084,0,0,1-2.992-.508,6.111,6.111,0,0,1-2.231-1.45,6.413,6.413,0,0,1-1.407-2.28,8.52174,8.52174,0,0,1-.495-2.973v-10.454h3.853v10.257a4.238,4.238,0,0,0,.837,2.775,3.423,3.423,0,0,0,4.84079.02723l.02723-.02723a4.239,4.239,0,0,0,.837-2.775v-10.257h3.853v10.456a8.52906,8.52906,0,0,1-.495,2.973,6.443,6.443,0,0,1-1.407,2.28,6.12823,6.12823,0,0,1-2.231,1.45A8.31224,8.31224,0,0,1,96.471,32.77946Z"/><path id="path28" class="cls-1" d="M125.964,42.58448l-2.4-.451c-1.079-.2-1.673-.794-1.673-1.666,0-1.188,1.247-1.9,2.452-1.9a2.8,2.8,0,0,1,2.874,2.095l3.306-1.577c-.488-1.416-1.948-3.871-6.2-3.871-3.431,0-6.224,2.463-6.224,5.491,0,2.568,1.757,4.45,4.7,5.036l2.4.474c1.185.231,1.893.89,1.893,1.761,0,1.127-.977,1.811-2.549,1.828a3.709,3.709,0,0,1-3.687-2.73l-3.176,1.732c.728,2.318,2.973,4.378,6.839,4.378a6.77407,6.77407,0,0,0,4.766-1.69,5.12494,5.12494,0,0,0,1.677-3.73c0-2.613-1.915-4.6-4.994-5.18Z"/><path id="path30" class="cls-1" d="M116.621,40.81745a8.57446,8.57446,0,0,0-1.934-2.747,9.14472,9.14472,0,0,0-2.871-1.832,11.05975,11.05975,0,0,0-3.492-.724h-6.008v17.362h6a9.22793,9.22793,0,0,0,6.367-2.489,8.46228,8.46228,0,0,0,1.935-9.567Zm-3.6,5.439a5.08394,5.08394,0,0,1-2.76,2.732,5.21679,5.21679,0,0,1-2.05.407h-2.1v-10.339h2.107a5.131,5.131,0,0,1,4.808,3.156,5.24313,5.24313,0,0,1,0,4.043Z"/></g></svg>