<svg id="Layer_1" data-name="Layer 1" xmlns="http://www.w3.org/2000/svg" viewBox="0 0 160 68"><defs><style>.cls-1{fill:#fff;}</style></defs><g id="pubg"><g id="g80"><path id="path82" class="cls-1" d="M56.36052,31.669a.567.567,0,0,1-.567.567h-1.493a.567.567,0,0,1-.567-.567h0v-9.6a.568.568,0,0,1,.567-.568h1.491a.568.568,0,0,1,.567.568Zm5.522-12.943a2.031,2.031,0,0,0-2.031-2.031h-11.098a.568.568,0,0,0-.568.568h0V31.669a.567.567,0,0,1-.567.567h-.058a.568.568,0,0,0-.567.568v3.955a.567.567,0,0,0,.567.567h.062a.567.567,0,0,1,.568.566V49.855a1.45,1.45,0,0,0,1.449,1.451h2.643a1.451,1.451,0,0,0,1.451-1.451V37.615a.291.291,0,0,1,.29-.29h3.486c1.175,0,2.537.182,3.545-.7a2.973,2.973,0,0,0,.836-2.173c0-.939-.008-15.73-.008-15.73"/></g><path id="path86" class="cls-1" d="M90.90153,45.854a.6.6,0,0,1-.6.6h-1.481a.6.6,0,0,1-.6-.6v-9.6a.6.6,0,0,1,.6-.6h1.481a.6.6,0,0,1,.6.6Zm-2.678-23.933a.6.6,0,0,1,.6-.6h1.431a.6.6,0,0,1,.6.6v8.048a.6.6,0,0,1-.6.6h-1.432a.6.6,0,0,1-.6-.6Zm8.143,13.291c-.017-.076-.036-.15-.06-.224a5.9,5.9,0,0,0-1.558-2.07c-.116-.129-.229-.261-.343-.392a.94113.94113,0,0,0,.231-.074,2.24721,2.24721,0,0,0,.23-.1,2.109,2.109,0,0,0,1.025-1.251c.01-.035.019-.07.026-.105a5.043,5.043,0,0,0,.057-.924c0-.12.006-.239.008-.359q.008-.423.014-.846.006-.494.01-.986,0-.545.007-1.091V18.436a1.741,1.741,0,0,0-1.74-1.742h-10.675a.6.6,0,0,0-.6.6V29.749a.6.6,0,0,1-.6.6.6.6,0,0,0-.6.6v3.6a.6.6,0,0,0,.6.6.6.6,0,0,1,.6.6v14.91a.632.632,0,0,0,.636.6h9.198a3.627,3.627,0,0,0,3.626-3.6s0-9.512.006-11.1a6.02554,6.02554,0,0,0-.093-1.35"/><path id="path90" class="cls-1" d="M112.51452,30.412h-5.441a.493.493,0,0,0-.491.491v3.762a.489.489,0,0,0,.489.489h.219a.489.489,0,0,1,.489.489V45.975a.489.489,0,0,1-.489.489h-1.96a.489.489,0,0,1-.489-.489V21.822a.489.489,0,0,1,.489-.489h2.686a.489.489,0,0,1,.489.489v2.785a.489.489,0,0,0,.489.489h3.481a.523.523,0,0,0,.527-.489V18.446a1.741,1.741,0,0,0-1.739-1.741h-9.067a2.9,2.9,0,0,0-2.9,2.9V48.222a3.047,3.047,0,0,0,3.047,3.047h7.2a3.547,3.547,0,0,0,3.462-3.627V30.901a.489.489,0,0,0-.489-.489"/><g id="g92"><path id="path94" class="cls-1" d="M79.73252,17.4a.7.7,0,0,0-.69395-.706l-.011,0h-4.136a.7.7,0,0,0-.705.695V45.727a.727.727,0,0,1-.725.725h-2.027a.727.727,0,0,1-.725-.725V17.4a.7.7,0,0,0-.694-.706l-.011,0h-4.138a.7.7,0,0,0-.705.695V46.671a5.3651,5.3651,0,0,0,.469,2.744,3.65718,3.65718,0,0,0,.713.895c.069.063.141.122.214.18.053.041.106.081.162.119.03.022.062.043.094.063a3.609,3.609,0,0,0,1.975.586h7.316a3.609,3.609,0,0,0,1.975-.586c.032-.021.063-.042.094-.063.055-.038.109-.078.162-.119.074-.058.145-.117.214-.18a3.65859,3.65859,0,0,0,.713-.895,5.366,5.366,0,0,0,.469-2.744Z"/></g></g></svg>