<?xml version="1.0" encoding="UTF-8" standalone="no"?>
<!DOCTYPE svg PUBLIC "-//W3C//DTD SVG 1.1//EN" "http://www.w3.org/Graphics/SVG/1.1/DTD/svg11.dtd">
<svg width="100%" height="100%" viewBox="0 0 160 68" version="1.1" xmlns="http://www.w3.org/2000/svg" xmlns:xlink="http://www.w3.org/1999/xlink" xml:space="preserve" xmlns:serif="http://www.serif.com/" style="fill-rule:evenodd;clip-rule:evenodd;stroke-linejoin:round;stroke-miterlimit:2;">
    <g transform="matrix(0.256051,0,0,0.256051,14.7071,14.7963)">
        <g id="fortnite">
            <path d="M447.7,81.814L446.47,85.004L445.25,81.814L444,81.814L444,86.314L444.81,86.314L444.81,82.804L446.15,86.314L446.76,86.314L448.1,82.804L448.1,86.314L449,86.314L449,81.814L447.7,81.814ZM439.44,81.814L439.44,82.524L440.82,82.524L440.82,86.314L441.69,86.314L441.69,82.524L443.06,82.524L443.06,81.814L439.44,81.814ZM145.42,81.824L131.27,81.824L134.27,89.074L109.66,143.954L126.27,143.954L128.43,138.684L152.43,134.124L156.66,143.954L173.26,143.954L145.42,81.824ZM134.52,123.934L134.44,123.934L141.1,107.684L147.1,121.544L134.52,123.934ZM238.31,5.254L238.31,67.384L222.42,67.384L222.42,35.764L208.5,52.294L207.34,52.294L193.5,35.764L193.5,67.384L177.5,67.384L177.5,5.254L186.83,5.254L208,31.974L229.64,5.254L238.31,5.254ZM505,5.254L498.48,19.804L478.3,19.804L478.3,78.904L462,81.814L462,19.814L441.06,19.814L444,27.074L444,67.384L427.73,67.384L427.73,41.794L406.79,45.794L406.79,67.384L390.55,67.384L390.55,5.254L406.79,5.254L406.79,31.564L427.73,27.564L427.73,5.254L505,5.254ZM288.29,81.814L288.29,96.374L269.76,96.374L269.76,143.954L253.44,143.954L253.44,96.374L237.91,96.374L231.38,81.814L288.29,81.814ZM262.18,19.814L262.18,29.594L286.63,29.594L280.26,43.804L262.18,43.804L262.18,67.384L246,67.384L246,5.254L288.27,5.254L288.27,19.814L262.18,19.814ZM145.71,5.254L131.56,5.254L134.56,12.514L109.92,67.384L126.54,67.384L128.7,62.074L152.7,57.514L157,67.384L173.6,67.384L145.71,5.254ZM134.82,47.364L134.74,47.364L141.4,31.124L147.35,44.974L134.82,47.364ZM82,19.814L82,29.594L106.46,29.594L100,43.804L82,43.804L82,52.804L108.12,52.804L101.54,67.384L65.79,67.384L65.79,26.314L68.71,19.814L48,19.814L48,81.814L31.68,78.814L31.68,19.814L11.53,19.814L5,5.254L108.07,5.254L108.07,19.814L82,19.814ZM382.12,37.704L382.12,67.384L368.29,64.954C363.11,67.894 357.94,69.074 350.77,69.074C332.52,69.074 319.58,55.874 319.58,37.074C319.58,18.274 332.52,5.074 350.77,5.074C366.39,5.074 376.7,13.604 380.46,26.604L363.71,26.604C360.908,22.614 356.262,20.31 351.39,20.494C342.26,20.494 336.15,27.044 336.15,37.064C336.15,47.084 342.26,53.624 351.39,53.624C358.12,53.624 366.18,49.624 366.18,37.674L382.13,37.674L382.12,37.704ZM232.52,121.834C229.72,135.834 219.32,145.044 202.18,144.924C183.89,144.794 170.94,131.704 170.94,112.924C170.94,94.144 183.89,80.924 202.18,80.924C217.97,80.924 228.35,89.624 232.03,102.844L215.37,102.844C212.74,98.754 208.32,96.364 202.8,96.364C193.65,96.364 187.53,102.934 187.53,112.964C187.53,122.994 193.65,129.564 202.8,129.564C208.9,129.564 213.62,126.664 216.11,121.914L232.52,121.834ZM122.7,81.814L116.18,96.374L100.64,96.374L100.64,143.954L84.32,143.954L84.32,96.374L65.79,96.374L65.79,81.814L122.7,81.814ZM415.9,105.694C433.9,110.194 442.21,113.504 442.21,125.054C442.21,136.604 434.43,144.924 414.56,144.924C394.5,144.924 386.78,134.604 386.78,121.834L402.5,121.834C402.5,127.904 406.5,131.484 414.56,131.484C420.75,131.484 425.17,129.254 425.17,125.984C425.17,122.984 420.22,121.614 413.17,119.714C396.24,115.174 388.52,111.144 388.52,99.714C388.52,90.584 394.61,80.814 414.59,80.814C434.57,80.814 440.25,90.584 440.25,101.144L424.6,101.144C424.6,97.234 422.25,94.144 414.6,94.144C406.95,94.144 405.3,97.044 405.3,99.474C405.3,102.574 408.93,103.894 415.94,105.644M381.17,121.834C378.37,135.834 367.96,145.044 350.83,144.924C332.54,144.794 319.58,131.704 319.58,112.924C319.58,94.144 332.58,80.924 350.83,80.924C366.62,80.924 376.99,89.624 380.68,102.844L364,102.844C361.36,98.754 357,96.364 351.42,96.364C342.28,96.364 336.16,102.934 336.16,112.964C336.16,122.994 342.28,129.564 351.42,129.564C357.52,129.564 362.25,126.664 364.73,121.914L381.17,121.834ZM296,5.254L312.24,5.254L312.24,67.384L296,67.384L296,5.254ZM296,81.824L312.24,81.824L312.24,143.954L296,143.954L296,81.824Z" style="fill:white;fill-rule:nonzero;"/>
        </g>
    </g>
</svg>
