<svg id="Layer_1" data-name="Layer 1" xmlns="http://www.w3.org/2000/svg" viewBox="0 0 160 68"><defs><style>.cls-1{fill:#fff;}</style></defs><g id="valorant"><path id="Path_28" data-name="Path 28" class="cls-1" d="M127.62934,28.654h4.344V41.959a.3.3,0,0,0,.3.3h2.5a.3.3,0,0,0,.3-.3V28.654h5.468a.192.192,0,0,0,.152-.3l-1.883-2.339a.855.855,0,0,0-.638-.3h-10.573a.3.3,0,0,0-.3.3v2.339a.357.357,0,0,0,.334.3M22.61434,41.99l12.759-15.979a.192.192,0,0,0-.152-.3h-3.159a.855.855,0,0,0-.638.3l-9.051,11.331V26.011a.3.3,0,0,0-.3-.3h-2.5a.3.3,0,0,0-.3.3V41.99a.3.3,0,0,0,.3.3h2.43a.844.844,0,0,0,.608-.3m9.022,0,4.374-5.5,4.4,5.5a.855.855,0,0,0,.638.3h2.43a.3.3,0,0,0,.3-.3V26.011a.3.3,0,0,0-.3-.3h-2.035a1.612,1.612,0,0,0-1.276.608l-12.516,15.675a.193.193,0,0,0,.152.3h3.173a.92009.92009,0,0,0,.668-.3m9.052-11.665V37.68l-2.947-3.676Zm71.235,11.665-12.759-15.979a.855.855,0,0,0-.638-.3h-2.43a.3.3,0,0,0-.3.3V41.994a.3.3,0,0,0,.3.3h2.43a.855.855,0,0,0,.638-.3l4.4-5.5,4.374,5.5a.855.855,0,0,0,.638.3h3.19a.179.179,0,0,0,.152-.3m-10.085-7.989-2.947,3.676V30.33Zm-35.115-8.723A8.718,8.718,0,1,0,75.44134,34h0a8.719,8.719,0,0,0-8.718-8.718m0,14.46a5.743,5.743,0,1,1,5.58694-5.89493q.00205.07695.00206.15393a5.667,5.667,0,0,1-5.589,5.741m55.317-13.731V37.342l-9.053-11.331a.855.855,0,0,0-.638-.3h-2.43a.3.3,0,0,0-.3.3v7.686a.825.825,0,0,0,.182.516l2.582,3.25a.185.185,0,0,0,.334-.121V30.659l9.052,11.331a.85494.85494,0,0,0,.638.3h2.43a.3.3,0,0,0,.3-.3V26.011a.3.3,0,0,0-.3-.3h-2.491a.3.3,0,0,0-.3.3m-30.438,3.463V26.011a.3.3,0,0,0-.3-.3h-12.769a.3.3,0,0,0-.3.3V41.99a.3.3,0,0,0,.3.3h2.491a.3.3,0,0,0,.3-.3V28.682h7.143l-4.83,6.045a.319.319,0,0,0,0,.395l5.5,6.9a.855.855,0,0,0,.638.3h3.19a.192.192,0,0,0,.152-.3l-5.622-7.14,3.919-4.921a.69.69,0,0,0,.182-.486m-43.744,12.819h7.382a.85494.85494,0,0,0,.638-.3l1.853-2.339a.192.192,0,0,0-.152-.3h-6.926V26.041a.3.3,0,0,0-.3-.3h-2.491a.3.3,0,0,0-.3.3V42.02a.3.3,0,0,0,.3.273"/></g></svg>